<?xml version="1.0" encoding="utf-8"?>
<!-- Generator: Adobe Illustrator 26.0.1, SVG Export Plug-In . SVG Version: 6.00 Build 0)  -->
<svg version="1.1" id="Layer_1" xmlns="http://www.w3.org/2000/svg" xmlns:xlink="http://www.w3.org/1999/xlink" x="0px" y="0px"
	 viewBox="0 0 512 512" style="enable-background:new 0 0 512 512;" xml:space="preserve">
<style type="text/css">
	.st0{fill:#003153;}
</style>
<g>
	<path class="st0" d="M131.7,212.1c0,48.5,39.3,87.8,87.8,87.8h87.8l0,0c0-48.5-39.3-87.8-87.8-87.8H131.7L131.7,212.1z M424.3,36.5
		h-73.1v87.8l0,0v263.4H87.8V124.3h73.1l0,0c0-48.5-39.3-87.8-87.8-87.8H0v351.2l0,0v43.9c0,24.3,19.7,43.9,43.9,43.9H395
		c24.3,0,43.9-19.7,43.9-43.9v-43.9l0,0V124.3H512l0,0C512,75.8,472.7,36.5,424.3,36.5z"/>
</g>
</svg>
