<?xml version="1.0" encoding="UTF-8"?>
<svg width="700pt" height="700pt" version="1.1" viewBox="0 0 700 700" xmlns="http://www.w3.org/2000/svg" xmlns:xlink="http://www.w3.org/1999/xlink">
 <defs>
  <symbol id="w" overflow="visible">
   <path d="m3.6094-0.21875c-0.1875 0.09375-0.38281 0.16797-0.57812 0.21875-0.19922 0.050781-0.41406 0.078125-0.64062 0.078125-0.64844 0-1.1641-0.17969-1.5469-0.54688-0.38672-0.36328-0.57812-0.86328-0.57812-1.5 0-0.625 0.19141-1.1172 0.57812-1.4844 0.38281-0.36328 0.89844-0.54688 1.5469-0.54688 0.22656 0 0.44141 0.027344 0.64062 0.078125 0.19531 0.042969 0.39062 0.11719 0.57812 0.21875v0.8125c-0.1875-0.13281-0.375-0.22656-0.5625-0.28125-0.17969-0.0625-0.36719-0.09375-0.5625-0.09375-0.36719 0-0.65234 0.11719-0.85938 0.34375-0.21094 0.23047-0.3125 0.54688-0.3125 0.95312s0.10156 0.73047 0.3125 0.96875c0.20703 0.23047 0.49219 0.34375 0.85938 0.34375 0.19531 0 0.38281-0.03125 0.5625-0.09375 0.1875-0.0625 0.375-0.15625 0.5625-0.28125z"/>
  </symbol>
  <symbol id="d" overflow="visible">
   <path d="m2.6406-2.1406c-0.085937-0.039063-0.16797-0.070313-0.25-0.09375-0.074219-0.019531-0.15234-0.03125-0.23438-0.03125-0.25 0-0.44531 0.078125-0.57812 0.23438-0.125 0.15625-0.1875 0.38281-0.1875 0.67188v1.3594h-0.9375v-2.9531h0.9375v0.48438c0.125-0.1875 0.26562-0.32031 0.42188-0.40625 0.15625-0.09375 0.34375-0.14062 0.5625-0.14062h0.09375c0.039062 0 0.097656 0.007813 0.17188 0.015625z"/>
  </symbol>
  <symbol id="a" overflow="visible">
   <path d="m3.3906-1.4844v0.26562h-2.2031c0.03125 0.23047 0.11328 0.40234 0.25 0.51562 0.13281 0.10547 0.32031 0.15625 0.5625 0.15625 0.19531 0 0.39844-0.023437 0.60938-0.078125 0.20703-0.0625 0.42188-0.15625 0.64062-0.28125v0.73438c-0.21875 0.085938-0.44531 0.14844-0.67188 0.1875-0.21875 0.039062-0.4375 0.0625-0.65625 0.0625-0.53125 0-0.94922-0.13281-1.25-0.40625-0.29297-0.26953-0.4375-0.64844-0.4375-1.1406 0-0.47656 0.14453-0.85156 0.4375-1.125 0.28906-0.28125 0.6875-0.42188 1.1875-0.42188 0.46875 0 0.83594 0.14062 1.1094 0.42188 0.28125 0.27344 0.42188 0.64062 0.42188 1.1094zm-0.96875-0.3125c0-0.17578-0.054687-0.31641-0.15625-0.42188-0.10547-0.11328-0.24219-0.17188-0.40625-0.17188-0.17969 0-0.32422 0.054687-0.4375 0.15625-0.11719 0.10547-0.1875 0.25-0.21875 0.4375z"/>
  </symbol>
  <symbol id="c" overflow="visible">
   <path d="m1.7812-1.3281c-0.19922 0-0.35156 0.039063-0.45312 0.10938-0.09375 0.0625-0.14062 0.15625-0.14062 0.28125s0.035156 0.22656 0.10938 0.29688c0.082031 0.0625 0.19531 0.09375 0.34375 0.09375 0.17578 0 0.32031-0.0625 0.4375-0.1875 0.125-0.13281 0.1875-0.29688 0.1875-0.48438v-0.10938zm1.4375-0.35938v1.6875h-0.95312v-0.4375c-0.125 0.17969-0.27344 0.30859-0.4375 0.39062-0.15625 0.082031-0.34375 0.125-0.5625 0.125-0.3125 0-0.5625-0.085938-0.75-0.26562-0.1875-0.17578-0.28125-0.41016-0.28125-0.70312 0-0.34375 0.11328-0.59375 0.34375-0.75 0.23828-0.16406 0.61328-0.25 1.125-0.25h0.5625v-0.078125c0-0.14453-0.0625-0.25-0.1875-0.3125-0.11719-0.070312-0.29688-0.10938-0.54688-0.10938-0.19922 0-0.38672 0.023437-0.5625 0.0625-0.16797 0.042969-0.32812 0.10156-0.48438 0.17188v-0.71875c0.20703-0.039062 0.41016-0.070312 0.60938-0.09375 0.20703-0.03125 0.41016-0.046875 0.60938-0.046875 0.53125 0 0.91406 0.10547 1.1562 0.3125 0.23828 0.21094 0.35938 0.54688 0.35938 1.0156z"/>
  </symbol>
  <symbol id="b" overflow="visible">
   <path d="m1.4844-3.7812v0.82812h0.96875v0.67188h-0.96875v1.25c0 0.14844 0.023437 0.24609 0.078125 0.29688 0.050781 0.042969 0.16016 0.0625 0.32812 0.0625h0.48438v0.67188h-0.8125c-0.375 0-0.64062-0.078125-0.79688-0.23438-0.14844-0.15625-0.21875-0.42188-0.21875-0.79688v-1.25h-0.46875v-0.67188h0.46875v-0.82812z"/>
  </symbol>
  <symbol id="k" overflow="visible">
   <path d="m2.4531-2.5156v-1.5781h0.95312v4.0938h-0.95312v-0.42188c-0.125 0.16797-0.26562 0.29297-0.42188 0.375-0.15625 0.082031-0.33984 0.125-0.54688 0.125-0.36719 0-0.66797-0.14453-0.90625-0.4375-0.23047-0.28906-0.34375-0.66016-0.34375-1.1094 0-0.45703 0.11328-0.82812 0.34375-1.1094 0.23828-0.28906 0.53906-0.4375 0.90625-0.4375 0.20703 0 0.39062 0.042969 0.54688 0.125 0.15625 0.074219 0.29688 0.19922 0.42188 0.375zm-0.60938 1.9062c0.19531 0 0.34766-0.070313 0.45312-0.21875 0.10156-0.14453 0.15625-0.35938 0.15625-0.64062s-0.054687-0.49219-0.15625-0.64062c-0.10547-0.14453-0.25781-0.21875-0.45312-0.21875-0.21094 0-0.36719 0.074219-0.46875 0.21875-0.10547 0.14844-0.15625 0.35938-0.15625 0.64062s0.050781 0.49609 0.15625 0.64062c0.10156 0.14844 0.25781 0.21875 0.46875 0.21875z"/>
  </symbol>
  <symbol id="j" overflow="visible">
   <path d="m2.0156-0.60938c0.20703 0 0.36328-0.070313 0.46875-0.21875 0.10156-0.14453 0.15625-0.35938 0.15625-0.64062s-0.054687-0.49219-0.15625-0.64062c-0.10547-0.14453-0.26172-0.21875-0.46875-0.21875-0.19922 0-0.35547 0.074219-0.46875 0.21875-0.10547 0.14844-0.15625 0.35938-0.15625 0.64062s0.050781 0.49609 0.15625 0.64062c0.11328 0.14844 0.26953 0.21875 0.46875 0.21875zm-0.625-1.9062c0.13281-0.17578 0.28125-0.30078 0.4375-0.375 0.15625-0.082031 0.33594-0.125 0.54688-0.125 0.36328 0 0.66016 0.14844 0.89062 0.4375 0.22656 0.28125 0.34375 0.65234 0.34375 1.1094 0 0.44922-0.11719 0.82031-0.34375 1.1094-0.23047 0.29297-0.52734 0.4375-0.89062 0.4375-0.21094 0-0.39062-0.042969-0.54688-0.125-0.15625-0.082031-0.30469-0.20703-0.4375-0.375v0.42188h-0.9375v-4.0938h0.9375z"/>
  </symbol>
  <symbol id="g" overflow="visible">
   <path d="m0.0625-2.9531h0.95312l0.78125 2 0.67188-2h0.95312l-1.25 3.2344c-0.125 0.32031-0.27344 0.54688-0.4375 0.67188-0.15625 0.13281-0.375 0.20312-0.65625 0.20312h-0.53125v-0.60938h0.28125c0.16406 0 0.28516-0.027344 0.35938-0.078125 0.070312-0.054688 0.12891-0.14844 0.17188-0.28125l0.015625-0.078125z"/>
  </symbol>
  <symbol id="f" overflow="visible">
   <path d="m2.875-0.71875h-1.5781l-0.25 0.71875h-1.0156l1.4531-3.9375h1.2031l1.4531 3.9375h-1.0156zm-1.3281-0.71875h1.0781l-0.53125-1.5781z"/>
  </symbol>
  <symbol id="v" overflow="visible">
   <path d="m0.45312-2.9531h0.9375v2.9531h-0.9375zm0-1.1406h0.9375v0.76562h-0.9375z"/>
  </symbol>
  <symbol id="i" overflow="visible">
   <path d="m3.4219-1.7969v1.7969h-0.95312v-1.375c0-0.25-0.007812-0.42188-0.015625-0.51562-0.011719-0.10156-0.03125-0.17578-0.0625-0.21875-0.03125-0.0625-0.085937-0.10938-0.15625-0.14062-0.0625-0.039062-0.13281-0.0625-0.20312-0.0625-0.19922 0-0.35547 0.078125-0.46875 0.23438-0.11719 0.14844-0.17188 0.35547-0.17188 0.625v1.4531h-0.9375v-2.9531h0.9375v0.4375c0.14453-0.17578 0.29688-0.30078 0.45312-0.375 0.16406-0.082031 0.34375-0.125 0.53125-0.125 0.34375 0 0.60156 0.10547 0.78125 0.3125 0.17578 0.21094 0.26562 0.51172 0.26562 0.90625z"/>
  </symbol>
  <symbol id="u" overflow="visible">
   <path d="m2.75-2.8594v0.71875c-0.19922-0.082031-0.39062-0.14453-0.57812-0.1875-0.1875-0.039063-0.36719-0.0625-0.53125-0.0625-0.17969 0-0.3125 0.023437-0.40625 0.0625-0.085937 0.042969-0.125 0.10938-0.125 0.20312 0 0.085938 0.03125 0.14844 0.09375 0.1875 0.070313 0.03125 0.19141 0.058594 0.35938 0.078125l0.17188 0.03125c0.47656 0.0625 0.80078 0.16797 0.96875 0.3125 0.16406 0.13672 0.25 0.35156 0.25 0.64062 0 0.32422-0.11719 0.5625-0.34375 0.71875-0.23047 0.15625-0.57812 0.23438-1.0469 0.23438-0.1875 0-0.38672-0.015625-0.59375-0.046875-0.21094-0.03125-0.42188-0.078125-0.64062-0.14062v-0.71875c0.1875 0.09375 0.37891 0.16797 0.57812 0.21875 0.19531 0.042969 0.39453 0.0625 0.59375 0.0625 0.1875 0 0.32812-0.023437 0.42188-0.078125 0.09375-0.050781 0.14062-0.12891 0.14062-0.23438 0-0.082031-0.039062-0.14453-0.10938-0.1875-0.0625-0.039063-0.1875-0.070313-0.375-0.09375l-0.17188-0.015625c-0.41797-0.050781-0.71094-0.14453-0.875-0.28125-0.16797-0.14453-0.25-0.36328-0.25-0.65625 0-0.3125 0.10156-0.53906 0.3125-0.6875 0.21875-0.15625 0.54688-0.23438 0.98438-0.23438 0.17578 0 0.35938 0.015625 0.54688 0.046875 0.19531 0.023438 0.40625 0.058594 0.625 0.10938z"/>
  </symbol>
  <symbol id="t" overflow="visible">
   <path d="m0.45312-4.0938h0.9375v4.0938h-0.9375z"/>
  </symbol>
  <symbol id="s" overflow="visible">
   <path d="m2.4531-0.5c-0.125 0.17969-0.26562 0.30859-0.42188 0.39062-0.15625 0.074219-0.33984 0.10938-0.54688 0.10938-0.35547 0-0.65234-0.14062-0.89062-0.42188-0.24219-0.28125-0.35938-0.64453-0.35938-1.0938 0-0.4375 0.11719-0.79688 0.35938-1.0781 0.23828-0.28125 0.53516-0.42188 0.89062-0.42188 0.20703 0 0.39062 0.042969 0.54688 0.125 0.15625 0.085937 0.29688 0.21094 0.42188 0.375v-0.4375h0.95312v2.6562c0 0.46875-0.15234 0.82812-0.45312 1.0781-0.29297 0.25-0.72656 0.375-1.2969 0.375-0.1875 0-0.37109-0.015625-0.54688-0.046875-0.16797-0.023437-0.33594-0.058594-0.5-0.10938v-0.73438c0.15625 0.09375 0.3125 0.16016 0.46875 0.20312 0.16406 0.050781 0.32812 0.078125 0.48438 0.078125 0.3125 0 0.53516-0.070313 0.67188-0.20312 0.14453-0.13672 0.21875-0.34766 0.21875-0.64062zm-0.60938-1.8281c-0.19922 0-0.35547 0.074219-0.46875 0.21875-0.10547 0.13672-0.15625 0.33594-0.15625 0.59375 0 0.27344 0.050781 0.48047 0.15625 0.625 0.10156 0.13672 0.25781 0.20312 0.46875 0.20312 0.1875 0 0.33203-0.066406 0.4375-0.20312 0.11328-0.14453 0.17188-0.35156 0.17188-0.625 0-0.25781-0.058594-0.45703-0.17188-0.59375-0.10547-0.14453-0.25-0.21875-0.4375-0.21875z"/>
  </symbol>
  <symbol id="h" overflow="visible">
   <path d="m3.4219-1.7969v1.7969h-0.95312v-1.375c0-0.25-0.007812-0.42188-0.015625-0.51562-0.011719-0.10156-0.03125-0.17578-0.0625-0.21875-0.03125-0.0625-0.085937-0.10938-0.15625-0.14062-0.0625-0.039062-0.13281-0.0625-0.20312-0.0625-0.19922 0-0.35547 0.078125-0.46875 0.23438-0.11719 0.14844-0.17188 0.35547-0.17188 0.625v1.4531h-0.9375v-4.0938h0.9375v1.5781c0.14453-0.17578 0.29688-0.30078 0.45312-0.375 0.16406-0.082031 0.34375-0.125 0.53125-0.125 0.34375 0 0.60156 0.10547 0.78125 0.3125 0.17578 0.21094 0.26562 0.51172 0.26562 0.90625z"/>
  </symbol>
  <symbol id="r" overflow="visible">
   <path d="m2.3906-4.0938v0.60938h-0.51562c-0.13672 0-0.23047 0.027344-0.28125 0.078125-0.054688 0.054688-0.078125 0.13672-0.078125 0.25v0.20312h0.79688v0.67188h-0.79688v2.2812h-0.9375v-2.2812h-0.46875v-0.67188h0.46875v-0.20312c0-0.32031 0.085937-0.55469 0.26562-0.70312 0.17578-0.15625 0.45312-0.23438 0.82812-0.23438z"/>
  </symbol>
  <symbol id="e" overflow="visible">
   <path d="m1.8594-2.3438c-0.21094 0-0.37109 0.078125-0.48438 0.23438-0.10547 0.14844-0.15625 0.35938-0.15625 0.64062s0.050781 0.5 0.15625 0.65625c0.11328 0.14844 0.27344 0.21875 0.48438 0.21875 0.19531 0 0.34766-0.070312 0.45312-0.21875 0.11328-0.15625 0.17188-0.375 0.17188-0.65625s-0.058594-0.49219-0.17188-0.64062c-0.10547-0.15625-0.25781-0.23438-0.45312-0.23438zm0-0.67188c0.5 0 0.89062 0.13672 1.1719 0.40625 0.28906 0.27344 0.4375 0.65234 0.4375 1.1406 0 0.48047-0.14844 0.85938-0.4375 1.1406-0.28125 0.27344-0.67188 0.40625-1.1719 0.40625-0.51172 0-0.91406-0.13281-1.2031-0.40625-0.28125-0.28125-0.42188-0.66016-0.42188-1.1406 0-0.48828 0.14062-0.86719 0.42188-1.1406 0.28906-0.26953 0.69141-0.40625 1.2031-0.40625z"/>
  </symbol>
  <symbol id="q" overflow="visible">
   <path d="m3.1875-2.4531c0.11328-0.1875 0.25391-0.32812 0.42188-0.42188 0.16406-0.09375 0.34766-0.14062 0.54688-0.14062 0.33203 0 0.58594 0.10547 0.76562 0.3125 0.17578 0.21094 0.26562 0.51172 0.26562 0.90625v1.7969h-0.9375v-1.5312-0.078125-0.10938c0-0.20703-0.03125-0.35938-0.09375-0.45312s-0.16406-0.14062-0.29688-0.14062c-0.17969 0-0.32031 0.078125-0.42188 0.23438-0.09375 0.14844-0.14062 0.35547-0.14062 0.625v1.4531h-0.95312v-1.5312c0-0.33203-0.03125-0.54688-0.09375-0.64062-0.054688-0.09375-0.14844-0.14062-0.28125-0.14062-0.1875 0-0.33594 0.078125-0.4375 0.23438-0.09375 0.14844-0.14062 0.35547-0.14062 0.625v1.4531h-0.9375v-2.9531h0.9375v0.4375c0.11328-0.16406 0.24219-0.28906 0.39062-0.375 0.15625-0.082031 0.32812-0.125 0.51562-0.125 0.19531 0 0.375 0.054687 0.53125 0.15625 0.15625 0.09375 0.27344 0.23047 0.35938 0.40625z"/>
  </symbol>
  <symbol id="p" overflow="visible">
   <path d="m0.5-3.9375h1.125l1.4375 2.7031v-2.7031h0.95312v3.9375h-1.125l-1.4375-2.7031v2.7031h-0.95312z"/>
  </symbol>
  <symbol id="o" overflow="visible">
   <path d="m0.42188-1.1406v-1.8125h0.95312v0.29688c0 0.16797-0.007812 0.37109-0.015625 0.60938v0.48438c0 0.23047 0.003906 0.39844 0.015625 0.5 0.019531 0.10547 0.039062 0.18359 0.0625 0.23438 0.039062 0.0625 0.09375 0.10938 0.15625 0.14062s0.13281 0.046875 0.21875 0.046875c0.19531 0 0.34766-0.070313 0.45312-0.21875 0.11328-0.15625 0.17188-0.36719 0.17188-0.64062v-1.4531h0.95312v2.9531h-0.95312v-0.42188c-0.13672 0.16797-0.28906 0.29297-0.45312 0.375-0.15625 0.082031-0.32812 0.125-0.51562 0.125-0.34375 0-0.60547-0.10156-0.78125-0.3125-0.17969-0.20703-0.26562-0.50781-0.26562-0.90625z"/>
  </symbol>
  <symbol id="n" overflow="visible">
   <path d="m0.5-3.9375h1.6719c0.5 0 0.88281 0.11719 1.1562 0.34375 0.26953 0.21875 0.40625 0.53906 0.40625 0.95312 0 0.40625-0.13672 0.72656-0.40625 0.95312-0.27344 0.21875-0.65625 0.32812-1.1562 0.32812h-0.65625v1.3594h-1.0156zm1.0156 0.73438v1.1094h0.54688c0.19531 0 0.34766-0.046875 0.45312-0.14062 0.11328-0.10156 0.17188-0.23828 0.17188-0.40625 0-0.17578-0.058594-0.3125-0.17188-0.40625-0.10547-0.10156-0.25781-0.15625-0.45312-0.15625z"/>
  </symbol>
  <symbol id="m" overflow="visible">
   <path d="m0.45312-2.9531h0.9375v2.9062c0 0.39453-0.09375 0.69141-0.28125 0.89062-0.1875 0.20703-0.46484 0.3125-0.82812 0.3125h-0.45312v-0.60938h0.15625c0.17578 0 0.29688-0.042969 0.35938-0.125 0.070312-0.085937 0.10938-0.24219 0.10938-0.46875zm0-1.1406h0.9375v0.76562h-0.9375z"/>
  </symbol>
  <symbol id="l" overflow="visible">
   <path d="m2.8281-2.8594v0.76562c-0.125-0.082031-0.25781-0.14453-0.39062-0.1875-0.125-0.039062-0.25781-0.0625-0.39062-0.0625-0.26172 0-0.46484 0.078125-0.60938 0.23438-0.14844 0.14844-0.21875 0.35938-0.21875 0.64062 0 0.27344 0.070312 0.48438 0.21875 0.64062 0.14453 0.15625 0.34766 0.23438 0.60938 0.23438 0.14453 0 0.28516-0.019531 0.42188-0.0625 0.13281-0.050781 0.25391-0.11719 0.35938-0.20312v0.76562c-0.14844 0.0625-0.29688 0.10156-0.45312 0.125-0.14844 0.03125-0.29688 0.046875-0.45312 0.046875-0.53125 0-0.94922-0.13281-1.25-0.40625-0.29297-0.28125-0.4375-0.66016-0.4375-1.1406 0-0.48828 0.14453-0.86719 0.4375-1.1406 0.30078-0.26953 0.71875-0.40625 1.25-0.40625 0.15625 0 0.30469 0.015625 0.45312 0.046875 0.15625 0.023438 0.30469 0.058594 0.45312 0.10938z"/>
  </symbol>
 </defs>
 <g>
  <path d="m284.85 482.04c-5.7891 0-10.504-4.7109-10.504-10.504 0-5.7891 4.7109-10.504 10.504-10.504h130.3c5.7891 0 10.504 4.7109 10.504 10.504 0 5.7891-4.7109 10.504-10.504 10.504z"/>
  <path d="m284.85 518.59c-5.7891 0-10.504-4.7109-10.504-10.504 0-5.7891 4.7109-10.504 10.504-10.504h130.3c5.7891 0 10.504 4.7109 10.504 10.504 0 5.7891-4.7109 10.504-10.504 10.504z"/>
  <path d="m298.98 534.14h102.03c2.6094 0 4.1836 2.5117 3.4922 4.7461l-2.6641 8.3672c-2.4492 7.7109-9.3164 12.746-17.402 12.746h-68.883c-8.0859 0-14.957-5.0352-17.402-12.746l-2.6641-8.3672c-0.69141-2.2305 0.88281-4.7461 3.4922-4.7461z" fill-rule="evenodd"/>
  <path d="m350 114.91c73.453 0 133.01 59.555 133.01 133.01 0 25.922-7.4609 51.09-21.664 72.773-20.055 30.625-31.086 61.184-35.176 97.555l-1.5977 14.137c-0.73438 6.4922-6.1562 11.344-12.691 11.344h-123.77c-6.5352 0-11.957-4.8516-12.691-11.344l-1.5977-14.137c-4.0859-36.371-15.117-66.93-35.176-97.555-14.203-21.684-21.664-46.852-21.664-72.773 0-73.453 59.555-133.01 133.01-133.01zm-10.48 37.094c4.9922-0.52734 9.4883 3.1055 10.016 8.0977 0.52734 4.9922-3.1055 9.4883-8.0977 10.016-35.758 3.8594-64.484 31.984-69.066 67.664-0.625 4.9805-5.1875 8.5078-10.168 7.8828s-8.5078-5.1875-7.8828-10.168c5.6719-44.094 40.996-78.707 85.199-83.492z" fill-rule="evenodd"/>
  <path d="m339.5 10.504c0-5.7891 4.7109-10.504 10.504-10.504 5.7891 0 10.504 4.7109 10.504 10.504v67.051c0 5.7891-4.7109 10.504-10.504 10.504-5.7891 0-10.504-4.7109-10.504-10.504z"/>
  <path d="m510.46 72.625c4.0859-4.0859 10.75-4.0859 14.836 0 4.0859 4.0859 4.0859 10.75 0 14.836l-47.414 47.414c-4.0859 4.0859-10.75 4.0859-14.836 0-4.0859-4.0859-4.0859-10.75 0-14.836z"/>
  <path d="m587.42 237.42c5.7891 0 10.504 4.7109 10.504 10.504 0 5.7891-4.7109 10.504-10.504 10.504h-67.051c-5.7891 0-10.504-4.7109-10.504-10.504 0-5.7891 4.7109-10.504 10.504-10.504z"/>
  <path d="m525.3 408.39c4.0859 4.0859 4.0859 10.75 0 14.836-4.0859 4.0859-10.75 4.0859-14.836 0l-47.414-47.414c-4.0859-4.0859-4.0859-10.75 0-14.836 4.0859-4.0859 10.75-4.0859 14.836 0z"/>
  <path d="m174.7 87.461c-4.0859-4.0859-4.0859-10.75 0-14.836 4.0859-4.0859 10.75-4.0859 14.836 0l47.414 47.414c4.0859 4.0859 4.0859 10.75 0 14.836-4.0859 4.0859-10.75 4.0859-14.836 0z"/>
  <path d="m112.58 258.43c-5.7891 0-10.504-4.7109-10.504-10.504 0-5.7891 4.7109-10.504 10.504-10.504h67.051c5.7891 0 10.504 4.7109 10.504 10.504 0 5.7891-4.7109 10.504-10.504 10.504z"/>
  <path d="m189.54 423.23c-4.0859 4.0859-10.75 4.0859-14.836 0-4.0859-4.0859-4.0859-10.75 0-14.836l47.414-47.414c4.0859-4.0859 10.75-4.0859 14.836 0 4.0859 4.0859 4.0859 10.75 0 14.836z"/>
  <use x="102.074219" y="576.175781" xlink:href="#w"/>
  <use x="106.03125" y="576.175781" xlink:href="#d"/>
  <use x="108.691406" y="576.175781" xlink:href="#a"/>
  <use x="112.347656" y="576.175781" xlink:href="#c"/>
  <use x="115.984375" y="576.175781" xlink:href="#b"/>
  <use x="118.5625" y="576.175781" xlink:href="#a"/>
  <use x="122.21875" y="576.175781" xlink:href="#k"/>
  <use x="127.957031" y="576.175781" xlink:href="#j"/>
  <use x="131.816406" y="576.175781" xlink:href="#g"/>
  <use x="137.207031" y="576.175781" xlink:href="#f"/>
  <use x="141.378906" y="576.175781" xlink:href="#v"/>
  <use x="143.226562" y="576.175781" xlink:href="#i"/>
  <use x="147.066406" y="576.175781" xlink:href="#u"/>
  <use x="150.273438" y="576.175781" xlink:href="#t"/>
  <use x="152.121094" y="576.175781" xlink:href="#a"/>
  <use x="155.78125" y="576.175781" xlink:href="#g"/>
  <use x="161.171875" y="576.175781" xlink:href="#f"/>
  <use x="165.34375" y="576.175781" xlink:href="#s"/>
  <use x="169.203125" y="576.175781" xlink:href="#c"/>
  <use x="172.839844" y="576.175781" xlink:href="#b"/>
  <use x="175.417969" y="576.175781" xlink:href="#h"/>
  <use x="179.257812" y="576.175781" xlink:href="#c"/>
  <use x="102.074219" y="581.566406" xlink:href="#r"/>
  <use x="104.421875" y="581.566406" xlink:href="#d"/>
  <use x="107.078125" y="581.566406" xlink:href="#e"/>
  <use x="110.78125" y="581.566406" xlink:href="#q"/>
  <use x="118.277344" y="581.566406" xlink:href="#b"/>
  <use x="120.855469" y="581.566406" xlink:href="#h"/>
  <use x="124.695312" y="581.566406" xlink:href="#a"/>
  <use x="130.226562" y="581.566406" xlink:href="#p"/>
  <use x="134.738281" y="581.566406" xlink:href="#e"/>
  <use x="138.445312" y="581.566406" xlink:href="#o"/>
  <use x="142.28125" y="581.566406" xlink:href="#i"/>
  <use x="147.996094" y="581.566406" xlink:href="#n"/>
  <use x="151.949219" y="581.566406" xlink:href="#d"/>
  <use x="154.609375" y="581.566406" xlink:href="#e"/>
  <use x="158.3125" y="581.566406" xlink:href="#m"/>
  <use x="160.160156" y="581.566406" xlink:href="#a"/>
  <use x="163.816406" y="581.566406" xlink:href="#l"/>
  <use x="167.011719" y="581.566406" xlink:href="#b"/>
 </g>
</svg>
